<?xml version="1.0" encoding="UTF-8" standalone="no"?>
<!-- Created with Inkscape (http://www.inkscape.org/) -->

<svg
   width="16.0px"
   height="16.0px"
   viewBox="0 0 16.0 16.0"
   version="1.1"
   id="SVGRoot"
   xmlns="http://www.w3.org/2000/svg"
   xmlns:svg="http://www.w3.org/2000/svg">
  <defs
     id="defs4210" />
  <g
     id="layer1">
    <path
       style="fill:#241c1c;stroke-width:1.36863"
       d="m 83.978244,611.15622 c -7.340472,-0.99346 -28.595479,-2.5059 -47.233348,-3.361 -51.557526,-2.36543 -64.168191,-4.67972 -43.0709383,-7.90432 21.6649633,-3.31136 18.7998483,-8.66728 -7.5226917,-14.06255 -17.900046,-3.66893 -20.182636,-4.44437 -20.182636,-6.8564 0,-2.58415 8.179994,-4.52489 26.6926577,-6.33296 L 8.8173623,571.06108 9.519804,547.59874 c 0.514701,-17.19159 1.220904,-24.0551 2.642319,-25.68014 1.066944,-1.21977 5.492305,-3.1878 9.834131,-4.37337 9.313193,-2.54304 17.211355,-6.14971 19.700399,-8.99608 1.456702,-1.66584 1.375023,-2.59441 -0.445202,-5.0608 -1.226078,-1.66133 -2.229244,-4.15216 -2.229244,-5.53515 0,-2.0792 0.668862,-2.35389 3.863403,-1.58658 13.995919,3.36166 41.463605,4.40568 55.141404,2.09585 4.459306,-0.75307 -0.590785,-1.11677 -17.140591,-1.23449 -12.904393,-0.0917 -26.496572,-0.78631 -30.204845,-1.54338 -18.041036,-3.68318 -11.372902,-7.18661 16.789375,-8.8211 8.306328,-0.48208 15.102418,-1.30234 15.102418,-1.82278 0,-2.27046 -7.443425,-35.33622 -11.329471,-50.32864 -2.340468,-9.02958 -6.466916,-22.54497 -9.169853,-30.03421 -5.629554,-15.59815 -18.497343,-41.05003 -23.736748,-46.95012 -2.507905,-2.82415 -1.848505,-1.08941 2.243078,5.90125 8.347199,14.26148 17.132045,34.39976 22.942797,52.59372 4.924562,15.41923 12.025811,45.70854 12.025811,51.29426 v 2.7875 l -5.268286,-2.90236 c -9.051295,-4.98646 -21.856487,-18.32069 -26.733518,-27.83798 -2.488739,-4.85667 -4.524974,-9.28308 -4.524974,-9.83648 0,-0.55342 2.892922,1.52461 6.428722,4.61782 3.535799,3.09322 6.776154,5.29428 7.200799,4.89128 0.424624,-0.40301 -1.178516,-2.29046 -3.562542,-4.19433 -8.047139,-6.42639 -21.305993,-28.15423 -21.305993,-34.915 0,-1.43567 1.765603,-0.25533 5.026535,3.36032 2.764597,3.06533 5.625719,5.57333 6.358021,5.57333 2.054558,0 -1.988631,-6.48785 -9.715321,-15.58953 -3.854931,-4.54092 -7.96765,-11.14092 -9.139412,-14.66667 -3.286621,-9.88933 -5.582603,-20.46684 -4.637314,-21.364 0.469172,-0.44526 4.017479,1.72283 7.885139,4.818 9.563256,7.65322 8.86367,5.29946 -1.33608,-4.49525 -4.602501,-4.41973 -9.410108,-10.43588 -10.683558,-13.36921 l -2.3153694,-5.33334 3.3079464,2.80164 c 6.344966,5.37382 7.484675,5.0467 2.337444,-0.67089 -5.0618118,-5.62271 -9.0973718,-13.46408 -6.9292823,-13.46408 2.9588383,0 21.8207673,6.87387 27.4437783,10.00136 7.90676,4.39771 13.470618,10.49727 13.470618,14.76761 0,3.93471 2.43752,4.31523 3.063266,0.47819 0.398799,-2.44547 1.133146,-2.11049 6.576729,3 3.370281,3.16407 8.020144,8.35261 10.333017,11.53011 3.916149,5.38013 4.169058,6.45708 3.679034,15.66666 -0.289398,5.43918 -0.03972,9.8894 0.554771,9.8894 0.594537,0 1.108858,-0.45 1.142955,-1 0.03414,-0.55 0.892521,-3.9933 1.907583,-7.65178 l 1.845586,-6.65179 2.818755,5.31845 c 3.681257,6.94582 6.473227,18.38498 5.702962,23.3659 -0.728246,4.7092 -0.07976,5.07953 1.668108,0.95256 1.046619,-2.47126 1.286241,-1.94096 1.359597,3.0088 0.049,3.30484 -0.499012,7.95484 -1.217754,10.33333 -1.410826,4.66877 0.512099,6.13475 2.042852,1.55739 1.242873,-3.71656 1.819202,-2.88018 3.35495,4.86884 1.234159,6.22718 0.413023,14.16545 -2.046424,19.78369 -0.830924,1.89815 -0.657471,2.28241 0.676954,1.49971 2.301535,-1.35 0.989511,2.89197 -3.541353,11.44968 -3.106381,5.86718 -3.181244,6.64777 -1.534536,16 l 1.73117,9.83189 14.40054,0.90919 c 7.9203,0.50005 16.59515,1.59658 19.27744,2.43673 4.58027,1.43465 4.87688,1.88331 4.87688,7.37724 0,6.52875 -1.32021,7.65939 -12.6359,10.82159 l -6.32993,1.7689 7.43389,-0.71008 c 6.08547,-0.58129 8.0936,-0.21758 11.07096,2.00515 2.00041,1.49339 7.86193,3.90939 13.02563,5.36888 14.97515,4.23268 17.94936,9.29117 18.24007,31.0224 l 0.10252,7.66667 h 11.13736 c 12.5403,0 30.28504,2.07597 37.88632,4.43234 3.35695,1.04064 5.20414,2.49927 5.4796,4.32692 0.5214,3.45944 -2.49643,4.81774 -17.56437,7.90552 -11.84366,2.42706 -17.79194,5.82779 -16.36529,9.35627 1.12494,2.78225 6.43987,3.79231 14.56942,2.7688 9.03872,-1.13796 15.72736,1.4478 18.15939,7.02025 5.53219,12.67575 -7.01058,16.9473 -37.67956,12.8321 -19.58104,-2.62742 -17.53353,-2.88932 -42.17676,5.395 -12.86861,4.32604 -29.20606,5.25524 -47.904558,2.7246 z m 44.788686,-78.63888 c 8.79379,-1.84844 16.32744,-3.68227 16.74144,-4.07519 1.16091,-1.1018 -0.83492,-0.88425 -14.46677,1.57689 -18.25957,3.29664 -76.041629,3.25131 -94.640629,-0.0743 -15.841073,-2.83244 -18.741686,-2.01671 -3.941268,1.1084 24.472128,5.16726 32.327354,5.9143 56.435611,5.36706 18.802296,-0.4268 27.284166,-1.25706 39.871616,-3.90292 z M 83.956738,493.39442 c -0.0531,-5.75839 -1.715016,-6.23406 -16.735449,-4.79 -13.502027,1.29808 -17.005448,2.19138 -15.224241,3.88189 1.320559,1.25329 13.836743,2.91737 23.200722,3.08461 7.496223,0.1339 8.777334,-0.18445 8.758968,-2.1765 z m 24.255622,0.14704 c 1.3522,-0.36304 2.45854,-1.20822 2.45854,-1.87816 0,-1.37296 -3.01953,-2.08592 -13.697543,-3.23423 -7.056195,-0.75881 -7.375601,-0.65645 -7.375601,2.36387 0,1.73637 0.46087,3.59444 1.024165,4.12904 0.972579,0.92306 12.330519,0.0317 17.590439,-1.38052 z"
       id="path4178" />
  </g>
</svg>
