<?xml version="1.0" encoding="UTF-8" standalone="no"?>
<!-- Created with Inkscape (http://www.inkscape.org/) -->

<svg
   width="297.0mm"
   height="210.0mm"
   viewBox="0 0 297.0 210.0"
   version="1.1"
   id="SVGRoot"
   sodipodi:docname="logo.svg"
   inkscape:version="1.2.2 (732a01da63, 2022-12-09, custom)"
   xmlns:inkscape="http://www.inkscape.org/namespaces/inkscape"
   xmlns:sodipodi="http://sodipodi.sourceforge.net/DTD/sodipodi-0.dtd"
   xmlns="http://www.w3.org/2000/svg"
   xmlns:svg="http://www.w3.org/2000/svg">
  <sodipodi:namedview
     id="namedview26"
     pagecolor="#505050"
     bordercolor="#eeeeee"
     borderopacity="1"
     inkscape:showpageshadow="0"
     inkscape:pageopacity="0"
     inkscape:pagecheckerboard="0"
     inkscape:deskcolor="#505050"
     inkscape:document-units="mm"
     showgrid="false"
     inkscape:zoom="1.0709325"
     inkscape:cx="548.58733"
     inkscape:cy="355.29784"
     inkscape:window-width="1920"
     inkscape:window-height="1016"
     inkscape:window-x="0"
     inkscape:window-y="27"
     inkscape:window-maximized="1"
     inkscape:current-layer="SVGRoot" />
  <defs
     id="defs297">
    <rect
       x="67.212502"
       y="180.55415"
       width="776.05421"
       height="448.59571"
       id="rect2661" />
  </defs>
  <g
     id="layer1"
     transform="matrix(0.93415782,0,0,1,-23.4309,-20.1487)">
    <path
       style="fill:#007d7d;fill-opacity:1;stroke-width:0.496705"
       d="m 31.265728,134.38881 c -0.330503,-0.99006 -4.863074,-27.22941 -4.863074,-28.15254 0,-0.74099 0.592722,-0.83556 4.967619,-0.7925 2.732202,0.0273 5.311544,-0.15355 5.731899,-0.40087 0.586772,-0.34535 0.823399,-1.83088 1.018989,-6.397068 l 0.254747,-5.947275 4.545183,-0.0896 c 2.49985,-0.0493 4.8153,0.0119 5.14543,0.13612 0.45885,0.17248 0.45217,0.906905 -0.0283,3.117605 -1.41087,6.490818 -1.37742,16.706738 0.0791,24.184218 0.5318,2.72996 1.17834,1.72452 1.08198,-1.68252 -0.0684,-2.41431 0.1398,-3.59773 0.795627,-4.52385 0.83553,-1.18 0.83929,-1.52366 0.0633,-5.80585 -0.837817,-4.62372 -0.711167,-9.745388 0.33609,-13.590418 l 0.48337,-1.774645 4.9581,0.0635 c 2.72697,0.0346 5.24472,0.29236 5.595,0.57126 0.44364,0.353195 0.63688,2.236385 0.63688,6.206735 0,4.750638 0.13422,5.750098 0.80592,6.002698 0.44327,0.16673 2.96528,0.32755 5.60451,0.35747 l 4.79859,0.0544 -0.0293,1.3313 c -0.0154,0.73222 -1.11919,7.3113 -2.45139,14.62018 l -2.42215,13.28885 -18.45169,-0.082 c -14.504915,-0.0646 -18.495525,-0.2134 -18.65655,-0.69578 z M 48.820681,92.338547 c 0,-1.12383 3.613057,-10.53995 5.367167,-13.987597 9.67239,-19.010765 28.45805,-32.449028 50.677932,-36.252288 7.21875,-1.235606 19.42896,-0.998781 26.49404,0.513834 4.70931,1.008266 11.86759,3.12494 13.5933,4.01949 0.33056,0.171394 -3.06147,0.192518 -7.53787,0.04704 -13.4876,-0.438423 -21.2903,0.858935 -30.23476,5.027132 -6.2723,2.922948 -10.178292,5.387897 -17.090242,10.785162 -3.50282,2.735205 -7.37248,5.3845 -8.59925,5.887316 -1.27965,0.524491 -3.94512,1.006457 -6.25272,1.130619 -2.21223,0.118942 -3.93983,0.295644 -3.83913,0.392504 0.10071,0.09685 1.84009,0.594821 3.86529,1.106584 l 3.68215,0.930461 -6.78357,6.519265 c -7.88447,7.577288 -10.87608,9.271108 -16.6945,9.452348 l -3.28743,0.10239 -0.75065,2.29157 c -0.53614,1.63673 -1.01629,2.28857 -1.680197,2.28104 -0.51127,-0.005 -0.92956,-0.11687 -0.92956,-0.24685 z"
       id="path312" />
    <text
       xml:space="preserve"
       style="font-size:3.175px;white-space:pre;inline-size:25.285;display:inline;fill:#007d7d;fill-opacity:1;stroke-width:0.264583"
       x="100.30897"
       y="98.816139"
       id="text1840"
       transform="matrix(17.767841,0,0,15.993942,-1702.4419,-1445.0533)"><tspan
         x="100.30897"
         y="98.816139"
         id="tspan312">INKLINGS</tspan></text>
    <text
       xml:space="preserve"
       transform="scale(0.26458333)"
       id="text2659"
       style="white-space:pre;shape-inside:url(#rect2661);display:inline;fill:#007d7d;fill-opacity:1" />
  </g>
</svg>
